<?xml version="1.0" encoding="UTF-8"?>
<svg width="11px" height="12px" viewBox="0 0 11 12" version="1.1" xmlns="http://www.w3.org/2000/svg" xmlns:xlink="http://www.w3.org/1999/xlink">
    <!-- Generator: Sketch 55.2 (78181) - https://sketchapp.com -->
    <title>like-icon</title>
    <desc>Created with Sketch.</desc>
    <g id="Page-1" stroke="none" stroke-width="1" fill="none" fill-rule="evenodd">
        <g id="Artboard" fill="#0F254C">
            <g id="like-icon" transform="translate(5.500000, 6.000000) scale(-1, 1) rotate(180.000000) translate(-5.500000, -6.000000) translate(0.000000, 0.000000)">
                <path d="M4.42642907,0.256415 C4.47326313,0.103286 4.60475944,2.66453526e-15 4.75287489,2.66453526e-15 C4.95076525,2.66453526e-15 5.20105076,0.0263281 5.44782738,0.152881 C5.70212566,0.283296 5.93019431,0.508719 6.09298662,0.863545 C6.38005591,1.48922 6.45726064,2.5011 6.19953592,4.125 L8.53808701,4.125 C8.7170587,4.12496 9.13523036,4.12486 9.55226598,4.35209 C9.97571472,4.58284 10.366365,5.02485 10.5688361,5.81174 C10.9495919,6.27456 11.0355276,6.83385 10.9881622,7.34982 C10.9408883,7.86474 10.7603134,8.36231 10.5868845,8.74763 C10.4063095,9.69946 10.1265145,10.2468 9.75134736,10.5972 C9.56527544,10.771 9.37050002,10.8821 9.19047475,10.9707 C9.11003598,11.0103 9.04068274,11.042 8.97542473,11.0719 C8.9107897,11.1015 8.85016745,11.1292 8.78668679,11.161 C8.56568173,11.5666 8.24862654,11.7837 7.90138392,11.8918 C7.55349998,12 7.16828256,12 6.8409664,12 L6.81754021,12 C5.71590469,12 4.63268397,11.6017 3.80208496,11.2206 C3.45111357,11.0596 3.13807117,10.8981 2.88661298,10.7683 C2.83931168,10.7439 2.79418168,10.7206 2.75138789,10.6987 C2.61373499,10.6281 2.50502355,10.5738 2.42185462,10.5373 C2.38040758,10.5191 2.35121876,10.508 2.33193361,10.5018 C2.32967069,10.5011 2.32770095,10.5005 2.32600606,10.5 L2,10.5 L2,5.41045 L2.16897639,5.30221 L2.17306246,5.29951 C2.17693781,5.29692 2.18350667,5.29248 2.19254916,5.28619 C2.2106433,5.2736 2.23861364,5.25359 2.27475612,5.2261 C2.34711436,5.17105 2.45188632,5.08626 2.57562277,4.97109 C2.82361788,4.74028 3.14459422,4.39045 3.43423792,3.91699 C3.70697849,3.47114 3.86849734,2.87497 4.00506918,2.20886 C4.04145902,2.03138 4.07633719,1.84686 4.11160016,1.6603 C4.20301451,1.17675 4.29698495,0.679599 4.42642907,0.256415 Z" id="Shape"></path>
                <path d="M0.25,4 C0.111928914,4 0,4.17410815 0,4.38888889 L0,10.6111111 C0,10.8258815 0.111928914,11 0.25,11 L1,11 L1,9.44444444 L0.5,9.44444444 L0.5,8.66666667 L1,8.66666667 L1,4 L0.25,4 Z" id="Path" fill-rule="nonzero"></path>
            </g>
        </g>
    </g>
</svg>