<svg width="13" height="12" viewBox="0 0 13 12" fill="none" xmlns="http://www.w3.org/2000/svg">
<path fill-rule="evenodd" clip-rule="evenodd" d="M4.90208 0.256415C4.9532 0.103286 5.09673 0 5.2584 0C5.4744 0 5.74759 0.0263281 6.01695 0.152881C6.29452 0.283296 6.54346 0.508719 6.72115 0.863545C7.03449 1.48922 7.11876 2.5011 6.83745 4.125L9.39001 4.125C9.58536 4.12496 10.0418 4.12486 10.497 4.35209C10.9592 4.58284 11.3856 5.02485 11.6066 5.81174C12.0222 6.27456 12.116 6.83385 12.0643 7.34982C12.0127 7.86474 11.8156 8.36231 11.6263 8.74763C11.4292 9.69946 11.1238 10.2468 10.7143 10.5972C10.5112 10.771 10.2986 10.8821 10.1021 10.9707C10.0143 11.0103 9.9386 11.042 9.86737 11.0719C9.79682 11.1015 9.73065 11.1292 9.66136 11.161C9.42013 11.5666 9.07406 11.7837 8.69504 11.8918C8.31532 12.0001 7.89485 12.0001 7.53758 12L7.51201 12C6.30956 12 5.12721 11.6017 4.2206 11.2206C3.83751 11.0596 3.49582 10.8981 3.22135 10.7683C3.16972 10.7439 3.12046 10.7206 3.07375 10.6987C2.9235 10.6281 2.80484 10.5738 2.71406 10.5373C2.66882 10.5191 2.63696 10.508 2.61591 10.5018C2.61344 10.5011 2.61129 10.5005 2.60944 10.5H2.2536V5.41045L2.43804 5.30221L2.4425 5.29951C2.44673 5.29692 2.4539 5.29248 2.46377 5.28619C2.48352 5.2736 2.51405 5.25359 2.5535 5.2261C2.63248 5.17105 2.74684 5.08626 2.8819 4.97109C3.15259 4.74028 3.50294 4.39045 3.81909 3.91699C4.11679 3.47114 4.29309 2.87497 4.44216 2.20886C4.48188 2.03138 4.51995 1.84686 4.55844 1.6603C4.65822 1.17675 4.76079 0.679599 4.90208 0.256415ZM2.60059 10.4979L2.6016 10.4981L2.60059 10.4979Z" fill="#0f254c"/>
<path d="M0.3756 4.5C0.168162 4.5 0 4.66789 0 4.875V10.875C0 11.0821 0.168162 11.25 0.3756 11.25H1.5024V9.75H0.751201V9H1.5024V4.5H0.3756Z" fill="#0f254c"/>
</svg>
